<svg width="34" height="10" viewBox="0 0 34 10" fill="none" xmlns="http://www.w3.org/2000/svg">
<path d="M3.79102 7.44141L6.03516 0.46875H7.6582L4.59961 9H3.50391L3.79102 7.44141ZM1.7168 0.46875L3.94336 7.44141L4.24805 9H3.14648L0.0996094 0.46875H1.7168ZM10.1836 0.46875V9H8.71289V0.46875H10.1836ZM14.4902 9H12.668L12.6797 7.83398H14.4902C15.0176 7.83398 15.459 7.71875 15.8145 7.48828C16.1738 7.25781 16.4434 6.92773 16.623 6.49805C16.8066 6.06836 16.8984 5.55664 16.8984 4.96289V4.5C16.8984 4.03906 16.8457 3.63086 16.7402 3.27539C16.6387 2.91992 16.4863 2.62109 16.2832 2.37891C16.084 2.13672 15.8379 1.95312 15.5449 1.82812C15.2559 1.70313 14.9219 1.64062 14.543 1.64062H12.6328V0.46875H14.543C15.1094 0.46875 15.627 0.564453 16.0957 0.755859C16.5645 0.943359 16.9688 1.21484 17.3086 1.57031C17.6523 1.92578 17.916 2.35156 18.0996 2.84766C18.2832 3.34375 18.375 3.89844 18.375 4.51172V4.96289C18.375 5.57617 18.2832 6.13086 18.0996 6.62695C17.916 7.12305 17.6523 7.54883 17.3086 7.9043C16.9648 8.25586 16.5547 8.52734 16.0781 8.71875C15.6055 8.90625 15.0762 9 14.4902 9ZM13.4824 0.46875V9H12.0117V0.46875H13.4824ZM25.4355 7.83398V9H20.9062V7.83398H25.4355ZM21.3223 0.46875V9H19.8516V0.46875H21.3223ZM24.8438 4.03125V5.17969H20.9062V4.03125H24.8438ZM25.4062 0.46875V1.64062H20.9062V0.46875H25.4062ZM33.4395 4.5V4.96875C33.4395 5.61328 33.3555 6.19141 33.1875 6.70312C33.0195 7.21484 32.7793 7.65039 32.4668 8.00977C32.1582 8.36914 31.7871 8.64453 31.3535 8.83594C30.9199 9.02344 30.4395 9.11719 29.9121 9.11719C29.3887 9.11719 28.9102 9.02344 28.4766 8.83594C28.0469 8.64453 27.6738 8.36914 27.3574 8.00977C27.041 7.65039 26.7949 7.21484 26.6191 6.70312C26.4473 6.19141 26.3613 5.61328 26.3613 4.96875V4.5C26.3613 3.85547 26.4473 3.2793 26.6191 2.77148C26.791 2.25977 27.0332 1.82422 27.3457 1.46484C27.6621 1.10156 28.0352 0.826172 28.4648 0.638672C28.8984 0.447266 29.377 0.351562 29.9004 0.351562C30.4277 0.351562 30.9082 0.447266 31.3418 0.638672C31.7754 0.826172 32.1484 1.10156 32.4609 1.46484C32.7734 1.82422 33.0137 2.25977 33.1816 2.77148C33.3535 3.2793 33.4395 3.85547 33.4395 4.5ZM31.9688 4.96875V4.48828C31.9688 4.01172 31.9219 3.5918 31.8281 3.22852C31.7383 2.86133 31.6035 2.55469 31.4238 2.30859C31.248 2.05859 31.0312 1.87109 30.7734 1.74609C30.5156 1.61719 30.2246 1.55273 29.9004 1.55273C29.5762 1.55273 29.2871 1.61719 29.0332 1.74609C28.7793 1.87109 28.5625 2.05859 28.3828 2.30859C28.207 2.55469 28.0723 2.86133 27.9785 3.22852C27.8848 3.5918 27.8379 4.01172 27.8379 4.48828V4.96875C27.8379 5.44531 27.8848 5.86719 27.9785 6.23438C28.0723 6.60156 28.209 6.91211 28.3887 7.16602C28.5723 7.41602 28.791 7.60547 29.0449 7.73438C29.2988 7.85938 29.5879 7.92188 29.9121 7.92188C30.2402 7.92188 30.5312 7.85938 30.7852 7.73438C31.0391 7.60547 31.2539 7.41602 31.4297 7.16602C31.6055 6.91211 31.7383 6.60156 31.8281 6.23438C31.9219 5.86719 31.9688 5.44531 31.9688 4.96875Z" fill="black"/>
</svg>
